<svg width="435" height="836" viewBox="0 0 435 836" fill="none" xmlns="http://www.w3.org/2000/svg">
<path d="M236.276 828.101L231.351 827.746H223.142L213.292 803.61L218.381 808.58L225.441 816.743L238.246 823.31L250.23 825.972L248.917 831.296L241.693 831.828L236.276 828.101Z" fill="#ECECEC" stroke="black" stroke-width="0.4" stroke-linecap="round" stroke-linejoin="round"/>
<path d="M186.204 460.736L204.755 479.193L212.307 480.968L224.291 489.486L233.977 493.923L235.783 498.892L228.888 516.284L238.41 519.301L248.752 521.076L255.647 519.301L262.707 510.428L263.199 500.489L267.467 498.182L272.721 504.926L273.378 513.977L266.482 520.189L261.065 524.803L252.364 535.984L242.514 551.424L241.693 560.652L241.036 572.365L243.006 583.723L241.529 586.208L242.185 593.484L242.678 599.518L255.483 609.279L255.811 617.088L262.214 622.057L262.707 627.559L257.289 642.111L245.797 648.323L229.052 650.63L219.202 649.387L222.649 656.309L222.814 664.65L225.769 670.329L221.664 674.411L213.292 676.008L204.098 671.749L201.636 674.766L205.74 685.946L212.307 689.318L216.083 685.769L220.187 691.625L213.292 695.175L208.531 702.274L210.501 713.454L210.337 719.488H202.457L197.531 725.167L197.696 733.686L208.367 741.85L216.903 743.979L217.232 754.095L209.68 760.307L208.695 773.262L202.949 777.521L201.472 782.668L208.367 794.204L215.918 800.415L212.471 799.883L204.427 798.108L184.562 796.688L178.816 790.299L175.697 782.136L170.608 782.845L166.339 778.764L161.25 767.228L165.683 762.259L165.847 755.337L162.892 749.658L164.041 740.075L162.235 725.345L159.28 718.778L162.235 716.649L159.937 712.39L155.34 710.26L156.653 705.468L151.564 701.209L145.49 688.254L148.281 685.946L142.863 672.104L141.55 660.568L141.221 650.452L145.326 646.37L139.908 635.19L137.281 624.896L142.206 617.443L139.908 607.859L142.535 596.856L140.236 586.385L137.61 584.256L129.565 564.556L133.013 552.843L130.222 541.84L131.7 531.369L135.968 520.721L141.386 513.622L138.102 509.186L139.416 505.459L136.789 486.469L145.982 480.968L147.952 469.077L146.475 466.238L153.042 455.944L165.354 458.784L171.429 466.948L174.055 457.719L184.562 458.251L186.204 460.736Z" fill="#ECECEC" stroke="black" stroke-width="0.4" stroke-linecap="round" stroke-linejoin="round"/>
<path d="M225.44 437.132L224.948 433.583L216.083 427.726L207.546 427.549L191.786 430.921L188.338 440.859L188.666 447.071L186.204 460.736L184.562 458.251L174.055 457.719L171.429 466.947L165.355 458.784L153.042 455.944L146.475 466.237L140.072 467.835L134.983 452.04L128.909 439.262L130.715 428.259L125.461 423.467L123.491 415.303L118.238 407.495L122.999 395.249L118.238 385.666L120.044 381.761L118.074 377.502L121.193 371.823L120.701 362.24V354.076L122.506 350.349L113.477 331.892L120.372 332.957L125.133 332.602L126.939 329.23L134.819 324.616L139.58 320.356L151.564 318.404L150.908 326.923L152.385 331.36L151.893 338.991L162.564 349.107L173.07 351.059L176.846 355.318L183.249 357.625L187.353 360.82H193.099L198.681 364.192L199.502 370.758L201.472 374.13L201.964 378.922L199.173 379.099L203.77 392.41L221.336 392.942L220.515 399.508L221.829 403.945L227.082 407.14L229.873 414.238L228.888 423.289L226.754 428.259L228.067 434.648L225.44 437.132Z" fill="#ECECEC" stroke="black" stroke-width="0.4" stroke-linecap="round" stroke-linejoin="round"/>
<path d="M230.858 185.48L235.947 186.545L236.932 184.06L235.29 181.93L236.275 178.558L240.051 179.623L244.484 178.381L249.737 180.865L253.841 183.173L256.632 180.156L258.766 180.51L260.08 183.705L264.512 182.995L268.124 178.558L271.079 170.217L276.661 159.746L279.944 159.214L282.078 165.603L287.003 185.48L292.093 187.432L292.257 195.241L285.198 204.647L287.988 208.018L304.57 209.793L304.898 221.329L311.957 213.875L323.613 217.957L339.209 224.878L343.806 231.445L342.328 237.834L353.164 234.284L371.222 240.318L385.177 239.963L398.967 249.369L411.115 262.147L418.339 265.341L426.219 265.874L429.666 269.423L432.95 283.976L434.756 290.897L431.308 309.709L426.876 317.163L414.235 332.958L408.653 345.913L402.086 355.674L399.788 356.029L397.654 364.37L399.131 385.667L397.325 403.236L396.833 410.69L394.206 415.304L393.385 430.567L384.848 445.297L384.027 457.187L376.968 461.979L375.162 468.9H365.312L351.358 473.16L345.284 478.306L335.433 481.678L325.419 490.729L318.688 502.087L318.196 510.606L320.33 516.817L319.837 528.353L318.524 533.855L312.942 540.244L305.555 560.298L298.988 569.171L293.734 574.673L291.272 585.499L286.511 591.888L283.063 585.499L286.019 579.997L279.78 572.366L271.9 565.977L261.557 558.701L258.438 559.056L248.095 550.182L242.514 551.424L252.364 535.984L261.065 524.804L266.482 520.189L273.377 513.978L272.721 504.927L267.467 498.183L263.199 500.49L264.348 493.924L264.841 487.18L264.348 480.791L260.901 478.839L257.617 480.614L254.17 480.081L252.856 475.822L251.05 465.351L249.08 461.979L242.678 458.785L239.066 461.092L229.38 458.785L228.723 443.345L225.44 437.133L228.067 434.649L226.753 428.26L228.888 423.29L229.873 414.239L227.082 407.141L221.828 403.946L220.515 399.509L221.336 392.943L203.77 392.411L199.173 379.1L201.964 378.923L201.471 374.131L199.501 370.759L198.681 364.193L193.099 360.821H187.353L183.249 357.626L176.846 355.319L173.07 351.06L162.563 349.108L151.892 338.992L152.385 331.361L150.907 326.924L151.564 318.405L139.58 320.357L134.819 324.617L126.939 329.231L125.133 332.603L120.372 332.958L113.477 331.893L108.223 333.845L103.955 332.603L103.791 315.388L96.5673 321.955L88.3589 321.777L84.583 315.566L78.3446 315.033L79.9863 310.064L74.5686 303.143L70.3003 292.849L72.7628 290.897L72.4345 285.928L78.0163 282.734L76.8671 276.522L79.1655 272.618L79.658 267.294L90.0006 259.485L97.5523 257.355L98.8658 255.581L107.238 256.113L110.85 224.878L111.014 219.909L109.537 213.52L105.268 209.261L105.433 200.92L110.686 199.145L112.492 200.387L112.82 195.95L107.402 194.708V187.609L125.461 187.964L128.58 183.882L131.207 187.609L132.849 194.353L134.655 192.933L139.744 198.967L146.967 198.258L148.773 194.708L155.668 192.046L159.608 190.094L160.757 185.302L167.488 182.108L166.996 179.623L159.116 178.736L157.967 171.46L158.459 163.828L154.355 160.989L156.161 159.924L162.892 161.344L170.279 164.183L173.07 161.521L179.801 159.746L190.308 155.487L193.755 151.05L192.606 147.856L197.531 147.501L199.501 149.986L198.188 155.132L201.471 156.729L203.441 162.054L200.815 166.135L199.173 175.719L201.471 181.575L201.964 186.899L207.71 192.224L212.307 192.756L213.292 190.449L216.247 189.916L220.515 187.964L223.47 184.947L228.723 186.012L230.858 185.48Z" fill="#E3C5A2" stroke="black" stroke-width="0.4" stroke-linecap="round" stroke-linejoin="round"/>
<path d="M97.2247 72.9626L91.1504 74.9147L88.5236 80.5938L84.7478 83.7883L81.7927 88.0476L80.3152 96.2112L77.3602 102.955L82.1211 103.665L83.1061 108.812L85.0761 111.474L85.5686 115.91L84.4194 120.17L84.5836 122.654L86.8819 123.542L88.852 127.446L100.836 126.381L106.254 127.801L112.492 137.739L116.268 136.497L122.999 137.029L128.253 135.787L131.536 137.739L129.566 143.773L127.432 147.678L126.447 155.841L128.253 163.473L130.715 166.845L131.043 169.329L126.283 175.008L129.566 177.493L132.028 181.575L134.655 192.933L132.849 194.353L131.208 187.609L128.581 183.882L125.462 187.964L107.403 187.609V194.707L112.821 195.95L112.492 200.387L110.686 199.144L105.433 200.919L105.269 209.26L109.537 213.519L111.015 219.908L110.851 224.878L107.239 256.112L102.478 250.078L99.6872 249.901L105.433 238.188L98.2097 232.864L92.6279 233.929L89.1804 231.976L84.0912 234.993L77.196 233.396L71.4501 221.506L67.1817 218.666L64.2266 213.164L57.9882 207.84L55.5257 208.905L51.5856 206.243L46.9889 202.516L44.3622 204.291L36.4821 202.694L34.1837 197.725L32.3779 197.902L23.1844 191.513L22.0352 187.964L25.4828 187.076L25.1544 181.397L27.4528 177.138L32.0495 176.428L36.1538 169.329L39.7655 163.295L36.4821 160.633L38.4521 154.067L36.6462 143.596L38.7804 140.579L37.6312 130.995L34.0196 124.784L35.497 119.282L38.4521 120.17L40.258 116.798L38.4521 110.054L39.6013 108.457L44.3622 108.812L51.7498 100.825L55.6898 99.5832L55.854 95.8563L58.1524 86.0954L63.7341 80.9488L69.4801 80.5938L70.465 78.2867L77.6885 79.1741L85.2403 73.495L89.0162 71.0104L93.7771 65.5088L97.0604 66.2187L99.1946 69.2357L97.2247 72.9626Z" fill="#E3C5A2" stroke="black" stroke-width="0.4" stroke-linecap="round" stroke-linejoin="round"/>
<path d="M55.5248 208.905L56.8382 217.601L54.0473 224.877L44.033 236.945L33.0337 241.382L27.452 251.32L25.9744 258.952L20.8852 263.743L16.781 257.887L13.005 256.644L9.22915 257.532L8.73666 253.45L11.3633 250.788L10.2142 245.996L14.9751 237.478L12.8409 232.508L9.39338 237.833L3.64746 232.686L5.45328 229.491L3.81159 219.198L7.09497 217.423L8.73666 210.325L12.1842 203.048L11.6917 198.434L16.781 195.949L23.1835 191.513L32.377 197.902L34.1829 197.724L36.4813 202.693L44.3614 204.291L46.988 202.516L51.5848 206.243L55.5248 208.905Z" fill="#E3C5A2" stroke="black" stroke-width="0.4" stroke-linecap="round" stroke-linejoin="round"/>
<path d="M226.097 139.159L224.455 149.452L218.709 152.291L219.202 154.953L217.396 160.987L221.336 169.151H224.291L225.44 175.54L230.858 185.478L228.724 186.011L223.47 184.946L220.515 187.963L216.247 189.915L213.292 190.448L212.307 192.755L207.71 192.222L201.964 186.898L201.472 181.574L199.173 175.718L200.815 166.134L203.442 162.052L201.472 156.728L198.188 155.131L199.502 149.984L197.532 147.5L192.607 147.855L186.532 139.336L189.159 136.142V130.817L194.905 129.043L197.203 126.913L194.248 122.654L195.069 118.572L202.785 111.828L208.695 116.087L214.113 123.364L214.277 129.398L217.724 129.575L222.649 135.077L226.097 139.159Z" fill="#ECECEC" stroke="black" stroke-width="0.4" stroke-linecap="round" stroke-linejoin="round"/>
<path d="M107.238 256.113L98.8659 255.58L97.5524 257.355L90.0007 259.485L79.6581 267.294L79.1656 272.618L76.8672 276.522L78.0164 282.733L72.4346 285.928L72.763 290.897L70.3004 292.849L74.5688 303.143L79.9864 310.064L78.3447 315.033L84.5832 315.566L88.359 321.777L96.5675 321.954L103.791 315.388L103.955 332.603L108.223 333.845L113.477 331.893L122.506 350.35L120.7 354.077V362.24L121.193 371.824L118.074 377.503L120.044 381.762L118.238 385.667L122.999 395.25L118.238 407.495L116.432 413.352L111.835 416.191L102.149 409.625L100.836 405.011L81.6281 393.653L64.062 381.052L56.346 374.131L51.7493 364.725L53.0627 361.353L44.1975 346.445L33.6907 325.504L23.8406 302.788L19.9005 297.464L16.6171 289.122L9.06537 281.669L2.33437 277.054L5.12527 272.085L0.200195 261.082L2.99109 253.096L10.2146 245.997L11.3637 250.789L8.73701 253.451L9.2295 257.533L13.0054 256.645L16.7813 257.888L20.8856 263.744L25.9748 258.952L27.4523 251.321L33.034 241.383L44.0334 236.946L54.0476 224.878L56.8385 217.602L55.5252 208.906L57.9877 207.841L64.2261 213.165L67.1812 218.666L71.4496 221.506L77.1955 233.397L84.0907 234.994L89.1799 231.977L92.6274 233.929L98.2092 232.864L105.433 238.188L99.6867 249.901L102.478 250.079L107.238 256.113Z" fill="#ECECEC" stroke="black" stroke-width="0.4" stroke-linecap="round" stroke-linejoin="round"/>
<path d="M225.44 437.133L228.723 443.345L229.38 458.785L239.066 461.092L242.678 458.785L249.08 461.979L251.05 465.351L252.856 475.822L254.17 480.081L257.617 480.614L260.901 478.839L264.348 480.791L264.841 487.18L264.348 493.924L263.199 500.49L262.706 510.429L255.647 519.302L248.752 521.077L238.409 519.302L228.888 516.285L235.783 498.893L233.977 493.924L224.291 489.487L212.307 480.968L204.755 479.194L186.204 460.737L188.666 447.072L188.338 440.86L191.785 430.922L207.546 427.55L216.082 427.727L224.948 433.584L225.44 437.133Z" fill="#ECECEC" stroke="black" stroke-width="0.4" stroke-linecap="round" stroke-linejoin="round"/>
<path d="M255.812 141.644L250.722 151.405L251.215 159.213L254.827 165.957L253.021 170.749L252.2 176.073L249.737 180.865L244.484 178.38L240.051 179.622L236.275 178.558L235.29 181.93L236.932 184.059L235.947 186.544L230.858 185.479L225.44 175.541L224.291 169.152H221.336L217.396 160.988L219.202 154.954L218.709 152.292L224.455 149.452L226.097 139.159L237.261 141.466L238.245 139.337L245.797 138.449L255.812 141.644Z" fill="#ECECEC" stroke="black" stroke-width="0.4" stroke-linecap="round" stroke-linejoin="round"/>
<path d="M286.511 591.886L283.884 599.163L275.019 605.374L268.124 603.067L263.527 604.309L254.498 599.518L248.588 599.872L242.185 593.484L241.529 586.207L243.006 583.723L241.036 572.365L241.693 560.651L242.514 551.423L248.095 550.181L258.438 559.054L261.557 558.699L271.9 565.976L279.78 572.365L286.018 579.996L283.063 585.497L286.511 591.886Z" fill="#ECECEC" stroke="black" stroke-width="0.4" stroke-linecap="round" stroke-linejoin="round"/>
<path d="M202.785 111.829L195.069 118.573L194.248 122.655L197.203 126.914L194.905 129.044L189.159 130.819V136.143L186.532 139.337L192.607 147.856L193.756 151.05L190.308 155.487L179.801 159.746L173.07 161.521L170.28 164.183L162.892 161.344L156.161 159.924L154.355 160.989L158.459 163.828L157.967 171.459L159.116 178.736L166.996 179.623L167.489 182.108L160.758 185.302L159.609 190.094L155.669 192.046L148.773 194.708L146.968 198.257L139.744 198.967L134.655 192.933L132.028 181.575L129.566 177.493L126.282 175.009L131.043 169.33L130.715 166.845L128.252 163.473L126.446 155.842L127.431 147.678L129.566 143.774L131.536 137.74L128.252 135.788L122.999 137.03L116.268 136.498L112.492 137.74L106.254 127.802L100.836 126.382L88.8517 127.447L86.8816 123.542L84.5833 122.655L84.4191 120.17L85.5683 115.911L85.0758 111.474L83.1058 108.812L82.1208 103.666L77.3599 102.956L80.3149 96.2118L81.7924 88.0481L84.7475 83.7888L88.5233 80.5944L91.1501 74.9153L97.2244 72.9631L96.896 75.6252L91.3142 77.0449L94.1051 82.1916L93.6126 88.2256L89.1801 94.792L92.2993 103.843L96.4035 103.133L98.8661 94.792L96.0752 90.8876V82.1916L107.895 77.5773L106.91 72.2532L110.358 68.5264L113.149 76.69L119.715 76.8675L125.297 83.0789L125.626 86.9833H133.834L143.848 85.9185L148.938 90.8876L155.833 92.3074L161.25 88.758L161.414 85.9185L173.07 85.2086L184.07 85.0311L176.026 88.4031L178.981 93.9047L186.368 94.6145L193.263 100.294L194.412 109.345L199.173 109.167L202.785 111.829Z" fill="#ECECEC" stroke="black" stroke-width="0.4" stroke-linecap="round" stroke-linejoin="round"/>
<path d="M213.292 803.609L223.142 827.745H231.35L236.275 828.1L235.454 832.359L230.201 835.731L226.261 835.377L221.172 834.489L214.277 831.295L205.412 829.697L193.099 823.663L182.592 817.984L166.503 805.739L174.055 808.046L188.174 815.322L200.158 819.227L202.128 814.258L201.636 806.804L207.217 802.189L213.292 803.609Z" fill="#ECECEC" stroke="black" stroke-width="0.4" stroke-linecap="round" stroke-linejoin="round"/>
<path d="M146.475 466.238L147.953 469.077L145.983 480.968L136.789 486.47L139.416 505.459L138.103 509.186L141.386 513.623L135.968 520.721L131.7 531.37L130.222 541.84L133.013 552.844L129.566 564.557L137.61 584.256L140.237 586.386L142.535 596.856L139.908 607.86L142.207 617.443L137.282 624.897L139.908 635.19L145.326 646.371L141.222 650.452L141.55 660.568L142.863 672.104L148.281 685.947L145.49 688.254L151.564 701.209L156.654 705.468L155.34 710.26L159.937 712.39L162.235 716.649L159.28 718.779L162.235 725.345L164.041 740.075L162.892 749.659L165.847 755.338L165.683 762.259L161.25 767.228L166.34 778.764L170.608 782.846L175.697 782.136L178.816 790.3L184.562 796.688L204.427 798.108L212.471 799.883H205.412L202.621 802.545L197.039 806.449L199.83 816.565L196.711 816.743L186.368 813.371L174.056 805.739L161.579 799.528L156.325 792.607L155.833 786.218L148.938 778.764L140.729 759.952L140.401 749.304L145.983 740.785L132.357 737.413L136.789 727.652L133.506 709.018L144.177 712.922L141.222 689.674L134.655 686.657L136.297 700.677L130.551 699.08L128.088 683.107L124.805 662.166L126.611 654.357L121.193 643.354L117.253 630.576L120.865 630.043L121.85 611.764L123.82 593.484L123.984 576.625L118.566 559.41L119.551 550.004L116.104 535.984L119.059 522.141L117.581 500.135V476.354L117.746 450.975L115.283 432.341L111.835 416.191L116.432 413.352L118.238 407.495L123.492 415.304L125.461 423.467L130.715 428.259L128.909 439.262L134.983 452.04L140.073 467.835L146.475 466.238Z" fill="#ECECEC" stroke="black" stroke-width="0.4" stroke-linecap="round" stroke-linejoin="round"/>
<path d="M249.737 180.865L252.2 175.895L253.021 170.749L254.662 165.957L251.215 159.213L250.722 151.404L255.812 141.644L258.931 142.886L265.662 145.548L275.348 155.131L276.661 159.746L271.079 170.216L268.124 178.557L264.513 182.994L260.08 183.704L258.767 180.51L256.632 180.155L253.842 183.172L249.737 180.865Z" fill="#ECECEC" stroke="black" stroke-width="0.4" stroke-linecap="round" stroke-linejoin="round"/>
<path d="M111.179 65.5092L110.358 65.1543L109.537 64.2669L109.701 63.2021L110.03 63.7345L110.686 64.4444L111.179 65.3318V65.5092Z" fill="#ECECEC" stroke="black" stroke-width="0.4" stroke-linecap="round" stroke-linejoin="round"/>
<path d="M121.193 69.9454H120.701L120.044 69.413L119.552 69.2355L119.059 68.7031L118.895 68.3482L118.402 68.1707L118.074 67.4608L117.582 66.9284L117.746 66.041L118.567 66.5735L118.731 67.4608L119.387 68.1707L120.537 68.5256L120.865 69.058L121.357 69.7679L121.193 69.9454Z" fill="#ECECEC" stroke="black" stroke-width="0.4" stroke-linecap="round" stroke-linejoin="round"/>
<path d="M282.735 800.593L283.392 800.415V801.125L282.079 800.593L282.571 800.06L282.899 799.883L282.735 800.593Z" fill="#ECECEC" stroke="black" stroke-width="0.4" stroke-linecap="round" stroke-linejoin="round"/>
<path d="M281.586 798.108L281.915 798.463L282.571 798.641L282.736 799.351L282.243 799.528L282.079 798.818L281.751 798.463L281.586 798.108Z" fill="#ECECEC" stroke="black" stroke-width="0.4" stroke-linecap="round" stroke-linejoin="round"/>
<path d="M291.765 796.688L292.093 796.866L291.929 797.576L291.436 797.398L291.108 796.866L291.6 796.511L291.765 796.688Z" fill="#ECECEC" stroke="black" stroke-width="0.4" stroke-linecap="round" stroke-linejoin="round"/>
<path d="M271.9 795.091V795.446L272.064 795.979L271.408 796.156L270.915 795.979L270.587 795.624L270.094 795.446L269.93 794.737H270.259L270.423 794.382L270.915 794.204L271.244 794.382L270.751 794.914L271.244 795.091L271.736 794.559L271.9 795.091Z" fill="#ECECEC" stroke="black" stroke-width="0.4" stroke-linecap="round" stroke-linejoin="round"/>
<path d="M276.661 792.784L276.004 792.429L275.184 791.897L273.87 791.364L274.034 790.654L272.885 790.477L272.393 790.299L271.9 789.59L272.229 789.412L273.542 789.944L274.855 790.654L275.676 790.832L276.333 791.009L276.825 790.477L276.99 789.944L277.318 790.122L277.974 789.767L278.139 790.122H278.959V790.654H279.452L280.93 790.299L281.094 790.654H281.586L282.243 790.477L281.75 790.122L281.586 789.59H282.243L283.228 789.944L283.392 790.654L282.735 791.542L282.9 792.074L282.571 792.429H281.915L281.422 793.849L280.93 794.381L280.437 795.446L280.273 795.978L279.452 796.511L279.288 796.156H278.631V796.688L277.318 796.511L277.154 796.688L277.646 797.398L277.482 797.576L277.154 798.286H276.497L276.004 798.995L275.512 799.173H275.184L274.855 798.641L274.199 798.108V797.753H273.378L274.363 798.463H273.706L272.885 797.931L272.557 797.753L271.9 797.398L271.408 797.043V796.688L272.557 797.043L273.542 796.688L272.721 796.333L272.557 796.156H274.034L274.691 796.333L275.184 796.688V796.333L275.84 796.156L276.004 795.624L275.348 795.269L275.019 794.381L275.184 794.026H276.169L276.497 794.204L277.154 794.026L276.99 793.494H275.676V793.671L275.019 794.026H274.034L273.214 793.494V792.962L274.363 793.316L275.348 792.962H275.84L276.661 792.784L277.318 793.139V792.962L276.661 792.784Z" fill="#ECECEC"/>
<path d="M276.661 792.784L276.004 792.429L275.184 791.897L273.87 791.364L274.034 790.654L272.885 790.477L272.393 790.299L271.9 789.59L272.229 789.412L273.542 789.944L274.855 790.654L275.676 790.832L276.333 791.009L276.825 790.477L276.99 789.944L277.318 790.122L277.974 789.767L278.139 790.122H278.959V790.654H279.452L280.93 790.299L281.094 790.654H281.586L282.243 790.477L281.75 790.122L281.586 789.59H282.243L283.228 789.944L283.392 790.654L282.735 791.542L282.9 792.074L282.571 792.429H281.915L281.422 793.849L280.93 794.381L280.437 795.446L280.273 795.978L279.452 796.511L279.288 796.156H278.631V796.688L277.318 796.511L277.154 796.688L277.646 797.398L277.482 797.576L277.154 798.286H276.497L276.004 798.995L275.512 799.173H275.184L274.855 798.641L274.199 798.108V797.753H273.378L274.363 798.463H273.706L272.885 797.931L272.557 797.753L271.9 797.398L271.408 797.043V796.688L272.557 797.043L273.542 796.688L272.721 796.333L272.557 796.156H274.034L274.691 796.333L275.184 796.688V796.333L275.84 796.156L276.004 795.624L275.348 795.269L275.019 794.381L275.184 794.026H276.169L276.497 794.204L277.154 794.026L276.99 793.494H275.676V793.671L275.019 794.026H274.034L273.214 793.494V792.962L274.363 793.316L275.348 792.962H275.84L276.661 792.784ZM276.661 792.784L277.318 793.139V792.962L276.661 792.784Z" stroke="black" stroke-width="0.4" stroke-linecap="round" stroke-linejoin="round"/>
<path d="M279.288 789.412H279.781L280.273 789.944L279.781 790.122H279.288V789.412Z" fill="#ECECEC" stroke="black" stroke-width="0.4" stroke-linecap="round" stroke-linejoin="round"/>
<path d="M277.646 789.412H277.153L276.989 788.88L277.646 789.057V789.412Z" fill="#ECECEC" stroke="black" stroke-width="0.4" stroke-linecap="round" stroke-linejoin="round"/>
<path d="M275.348 789.057L276.333 788.88L276.661 789.412L276.169 790.122L275.841 789.945L275.348 790.122L274.855 789.767L275.348 789.412L275.841 789.767L276.005 789.412L275.184 789.235L275.348 789.057Z" fill="#ECECEC" stroke="black" stroke-width="0.4" stroke-linecap="round" stroke-linejoin="round"/>
<path d="M287.168 789.235H288.153L288.317 789.057L289.138 788.88L289.794 789.235L290.451 789.767L290.615 790.3V790.477L289.794 790.655L289.466 790.122L289.138 789.945L288.974 790.477L289.302 790.655L289.466 791.187L289.958 790.832L290.287 791.01L290.451 791.719L290.944 791.897L291.108 791.719L291.929 792.252L292.093 791.542L290.779 791.187L290.944 790.3L291.436 789.945L293.899 789.767L295.048 790.832L295.376 791.01V791.719L294.391 791.542L293.57 791.187L292.585 791.542L293.078 791.897L293.734 792.074L295.212 792.252L295.704 792.429L295.869 792.784L295.54 793.672H294.719L294.555 793.849L293.406 794.027L292.585 794.382L293.078 794.737L291.6 795.446L290.944 795.269L290.123 795.446H288.974L287.988 795.091L287.003 794.382V794.914L287.496 795.269L288.481 795.624L288.974 796.156L289.302 795.979L289.958 796.156L290.615 796.689L290.287 796.866L290.615 797.753H290.287L289.794 797.221L289.138 797.044L288.317 797.753L287.988 797.221L287.496 796.866H287.003L286.183 796.511L285.854 796.689L286.183 797.399H286.675L287.003 797.753L286.675 797.931L287.824 798.996L287.496 799.173L286.839 798.818H286.347L285.854 798.286L285.362 798.108L284.869 797.931L284.705 798.996L285.526 799.173V799.706L285.362 800.061L284.705 799.883L284.541 799.528L283.72 799.173L283.556 798.818H283.228L282.571 797.931L283.063 797.221V796.866L282.407 795.979V795.624L283.228 795.269L283.063 794.914L283.884 794.737L283.72 794.204L284.705 793.494L285.69 793.139L286.347 793.849V794.559L286.839 794.382L286.018 793.317L286.183 792.784L285.198 792.429L284.541 791.897L284.705 791.542L285.362 791.897L285.526 791.01L284.377 790.655L284.541 790.122L284.869 790.3L285.362 789.945H285.854L286.183 789.412L285.69 788.88H286.347L287.168 789.235Z" fill="#ECECEC" stroke="black" stroke-width="0.4" stroke-linecap="round" stroke-linejoin="round"/>
<path d="M278.959 788.524H280.108L280.437 788.879L280.765 788.524L281.094 788.702L281.422 789.234L281.094 789.412L280.437 789.234L279.78 788.879L278.467 788.702L278.631 788.347L278.959 788.524Z" fill="#ECECEC" stroke="black" stroke-width="0.4" stroke-linecap="round" stroke-linejoin="round"/>
<path d="M267.796 786.572L266.975 786.395L267.139 786.04L267.796 786.572Z" fill="#ECECEC" stroke="black" stroke-width="0.4" stroke-linecap="round" stroke-linejoin="round"/>
<path d="M158.459 0.555104H158.131L156.653 1.08755H155.668L155.997 0.732586L156.653 0.377623L157.31 0.200195L158.295 0.377623L158.459 0.555104Z" fill="#ECECEC" stroke="black" stroke-width="0.4" stroke-linecap="round" stroke-linejoin="round"/>
<path d="M193.099 83.6104L192.771 84.4977L192.278 85.2076L191.95 85.3851L191.786 86.0949L192.114 87.1598L191.786 87.3372V88.5795L192.114 89.1119L192.442 89.4669L192.114 89.8218L191.95 90.3542V91.5965L191.622 91.774L190.965 92.1289L190.144 92.3064H189.651L188.831 92.4839L188.01 92.3064L187.353 92.4839L186.861 92.3064L186.04 92.6613L185.383 92.3064H184.398L183.906 92.6613L183.413 92.4839L184.234 92.1289L184.726 91.5965L185.383 91.4191L186.04 90.8866L186.368 90.3542L187.353 90.5317L187.846 89.8218L187.517 88.402L187.846 87.6922V86.8048V86.4498L187.353 85.74L186.861 85.5625L186.204 85.3851L186.04 85.2076L186.696 84.6751L188.502 84.4977L188.831 84.1427H190.636L190.801 83.9653L192.771 83.6104H193.099Z" fill="#ECECEC" stroke="black" stroke-width="0.4" stroke-linecap="round" stroke-linejoin="round"/>
<path d="M197.039 77.9316L196.875 78.819L196.382 78.9965L195.726 79.5289H195.397L194.248 80.2387L193.92 79.8838L194.412 79.3514L195.562 78.464L197.039 77.9316Z" fill="#ECECEC" stroke="black" stroke-width="0.4" stroke-linecap="round" stroke-linejoin="round"/>
<path d="M126.118 70.1232H125.789L125.625 69.2359L125.789 68.7034L125.625 68.171L124.969 67.9935L124.476 67.4612L124.64 66.9287L126.61 67.9935L126.446 68.3485V69.0584L126.118 69.4133V70.1232Z" fill="#ECECEC" stroke="black" stroke-width="0.4" stroke-linecap="round" stroke-linejoin="round"/>
</svg>
